<?xml version="1.0" encoding="utf-8"?>
<!-- Generator: Adobe Illustrator 26.2.1, SVG Export Plug-In . SVG Version: 6.00 Build 0)  -->
<svg version="1.1" xmlns="http://www.w3.org/2000/svg" xmlns:xlink="http://www.w3.org/1999/xlink" x="0px" y="0px"
	 viewBox="0 0 1080 1080" style="enable-background:new 0 0 1080 1080;" xml:space="preserve">
<style type="text/css">
	.st0{fill:#FFFFFF;}
	.st1{fill:#9EC8A9;}
	.st2{fill:#23823C;}
</style>
<g id="White">
	<g>
		<g>
			<circle class="st0" cx="1398.33" cy="313.29" r="52"/>
		</g>
		<g>
			<path class="st0" d="M1520.07,524.92v-83.11h60.43v21.37H1545v10.8h30.99v19H1545v10.57h35.5v21.37H1520.07z"/>
			<path class="st0" d="M1617.42,503.55h37.28v21.37h-62.21v-83.11h24.93V503.55z"/>
			<path class="st0" d="M1656.24,524.92l32.18-83.11h22.08l33.01,83.11h-26.48l-5.34-13.89h-24.7l-4.99,13.89H1656.24z
				 M1690.91,491.56h16.62l-7.96-23.39L1690.91,491.56z"/>
			<path class="st0" d="M1788.5,524.09l-14.13-37.04l-3.09,37.87h-24.81l7.6-83.11h23.75l18.88,47.25l18.88-47.25h23.75l7.6,83.11
				h-24.81l-3.09-37.87l-14.13,37.04H1788.5z"/>
		</g>
		<g>
			<path class="st0" d="M1467.19,662.22c0-23.15,16.86-42.86,44.88-42.86c28.02,0,44.88,19.71,44.88,42.86s-16.86,42.86-44.88,42.86
				C1484.05,705.09,1467.19,685.38,1467.19,662.22z M1532.01,662.22c0-11.64-7.24-21.49-19.95-21.49
				c-12.71,0-19.95,9.85-19.95,21.49s7.24,21.49,19.95,21.49C1524.77,683.71,1532.01,673.86,1532.01,662.22z"/>
			<path class="st0" d="M1592.2,664.12v39.66h-24.93v-83.11h19.47l27.66,38.94v-38.94h24.93v83.11h-19.35L1592.2,664.12z"/>
			<path class="st0" d="M1711.64,645.84c-5.11-4.27-10.8-5.11-15.79-5.11c-12.94,0-21.37,9.5-21.37,21.49s8.43,21.49,21.37,21.49
				c2.61,0,7.12-0.36,9.97-1.31v-9.14h-17.21v-17.93h40.96v36.33c-8.9,7.84-19.95,13.42-33.72,13.42c-28.02,0-46.3-19.71-46.3-42.86
				s18.28-42.86,46.3-42.86c12.58,0,21.49,3.92,29.68,10.33L1711.64,645.84z"/>
			<path class="st0" d="M1740.84,703.78v-83.11h60.43v21.37h-35.5v10.8h30.99v19h-30.99v10.57h35.5v21.37H1740.84z"/>
			<path class="st0" d="M1838.08,675.76v28.02h-24.93v-83.11h40.37c19.35,0,29.68,13.06,29.68,28.97c0,12.23-6.29,21.13-17.22,24.58
				c1.07,7.84,4.87,11.52,9.74,11.52c2.85,0,5.94-0.83,9.02-2.85l7.6,15.79c-6.05,4.16-13.3,6.41-21.73,6.41
				c-21.61,0-25.65-20.78-26.6-29.33H1838.08z M1838.08,658.54h12.82c4.27,0,7.36-4.04,7.36-8.07c0-4.39-3.09-8.43-7.36-8.43h-12.82
				V658.54z"/>
			<path class="st0" d="M1898.38,703.78v-83.11h60.43v21.37h-35.5v10.8h30.99v19h-30.99v10.57h35.5v21.37H1898.38z"/>
			<path class="st0" d="M1995.74,664.12v39.66h-24.93v-83.11h19.47l27.66,38.94v-38.94h24.93v83.11h-19.35L1995.74,664.12z"/>
		</g>
		<g>
			<path class="st0" d="M1722.2,760.22c0.7,3.21,2.76,4.92,6.22,4.92c2.41,0,4.11-0.8,4.11-2.51c0-0.85-0.45-1.96-2.96-2.76
				l-3.96-1.5c-1.71-0.55-10.23-2.81-10.33-10.28c0-6.77,5.72-11.13,13.39-11.13c6.62,0,10.83,3.26,12.84,9.13l-8.43,2.41
				c-0.7-1.96-1.71-3.51-4.21-3.51c-1.71,0-3.31,0.7-3.31,2.21c0,1,0.7,1.91,2.86,2.66l3.91,1.35c7.82,2.71,10.28,6.12,10.43,11.08
				c0,7.47-6.72,10.88-14.34,10.88c-8.12,0-13.64-3.91-14.7-10.98L1722.2,760.22z"/>
			<path class="st0" d="M1751.69,735.39c3.91,0,5.77,2.01,5.77,4.61c0,2.61-2.06,4.61-5.77,4.61c-3.71,0-5.77-2.01-5.77-4.61
				C1745.92,737.4,1747.78,735.39,1751.69,735.39z M1756.86,746.23h-10.33v26.38h10.33V746.23z"/>
			<path class="st0" d="M1778.27,758.16c0-2.06-0.45-4.46-3.11-4.46s-3.06,2.41-3.06,4.46v14.44h-10.33v-26.38h10.33v3.26
				c1.45-2.36,3.76-3.81,7.32-3.81c8.18,0,9.18,7.17,9.18,11.49v15.45h-10.33V758.16z"/>
			<path class="st0" d="M1805,773.16c-4.71,0-10.03-1.96-10.03-9.68v-9.78h-3.61v-7.47h4.71l1.2-6.47h7.77v6.47h6.27v7.47h-6.27
				v9.88c0,1.15,0.55,1.61,1.25,1.61c1.05,0,1.4-1.05,1.4-2.01c0-1.15-0.25-2.16-0.45-2.41h6.57c0.55,0.85,0.85,2.06,0.9,3.16
				C1814.73,771.3,1809.52,773.16,1805,773.16z"/>
			<path class="st0" d="M1817.59,752.9h18.96v8.93h-18.96V752.9z"/>
			<path class="st0" d="M1837.8,772.61l13.59-35.11h9.33l13.94,35.11h-11.18l-2.26-5.87h-10.43l-2.11,5.87H1837.8z M1852.45,758.51
				h7.02l-3.36-9.88L1852.45,758.51z"/>
			<path class="st0" d="M1907.11,757.86c0-2.06-0.4-4.11-2.41-4.11c-2.01,0-2.46,2.06-2.46,4.11v14.75h-10.33v-14.75
				c0-2.06-0.4-4.11-2.41-4.11c-2.01,0-2.46,2.06-2.46,4.11v14.75h-10.33v-26.38h10.33v3.31c0.9-2.36,3.26-3.86,6.07-3.86
				c3.41,0,5.62,1.61,6.97,3.76c2.76-3.36,5.27-3.76,8.08-3.76c7.32,0,9.28,7.22,9.28,11.54v15.4h-10.33V757.86z"/>
			<path class="st0" d="M1940.62,769.35c-1.4,2.36-4.11,3.81-7.52,3.81c-7.02,0-12.39-5.77-12.39-13.74
				c0-7.97,5.37-13.74,12.39-13.74c3.41,0,6.12,1.45,7.52,3.86v-3.31h10.33v26.38h-10.33V769.35z M1935.9,765.29
				c3.01,0,4.87-2.56,4.87-5.87c0-3.31-1.86-5.87-4.87-5.87c-3.01,0-4.87,2.56-4.87,5.87
				C1931.04,762.73,1932.89,765.29,1935.9,765.29z"/>
			<path class="st0" d="M1972.36,758.16c0-2.06-0.45-4.46-3.11-4.46s-3.06,2.41-3.06,4.46v14.44h-10.33v-26.38h10.33v3.26
				c1.45-2.36,3.76-3.81,7.32-3.81c8.18,0,9.18,7.17,9.18,11.49v15.45h-10.33V758.16z"/>
			<path class="st0" d="M2005.91,769.35c-1.4,2.36-4.11,3.81-7.52,3.81c-7.02,0-12.39-5.77-12.39-13.74
				c0-7.97,5.37-13.74,12.39-13.74c3.41,0,6.12,1.45,7.52,3.86v-13.19h10.33v36.26h-10.33V769.35z M2001.2,765.29
				c3.01,0,4.87-2.56,4.87-5.87c0-3.31-1.86-5.87-4.87-5.87c-3.01,0-4.87,2.56-4.87,5.87
				C1996.33,762.73,1998.19,765.29,2001.2,765.29z"/>
			<path class="st0" d="M2026.98,762.98c0.5,2.46,2.21,3.21,4.31,3.21c1.5,0,2.46-0.45,2.46-1.3c0-0.5-0.2-0.85-1.76-1.4l-3.01-1.1
				c-1.46-0.55-8.23-2.26-8.23-8.03c0-5.27,4.66-8.68,10.73-8.68c4.71,0,8.43,1.81,10.43,6.72l-7.47,2.11
				c-0.7-1.6-1.86-2.11-3.06-2.11c-1.1,0-1.66,0.6-1.66,1.25s0.55,0.95,1.76,1.35l2.91,1.2c5.72,2.01,8.28,4.82,8.38,8.43
				c0,5.92-5.37,8.53-11.49,8.53c-6.57,0-10.93-2.71-11.84-8.48L2026.98,762.98z"/>
		</g>
		<g>
			<path class="st0" d="M1491.35,562.1c4.32-4.76,11.98,0.18,9.44,6.08c-50.33,117.15-135.24,259.35-206.47,250.1
				c-29.88-4.67-37.09-28.52-11.05-166.81c1.39-7.39,11.81-7.85,13.82-0.6c8.17,29.3,21.56,69.49,34.22,72.41
				C1353.84,728.48,1440.06,618.62,1491.35,562.1z"/>
		</g>
		<g>
			<path class="st0" d="M1614.42,310.87c4.91-0.96,7.24,5.83,2.79,8.12c-45.15,23.21-109.75,58.76-124.88,82.29c-9,16,17,53,17,79
				c0,24.3-33.19,73.05-125.68,163.4c-2.88,2.81-7.38-0.87-5.19-4.25c34.97-53.78,73.38-107.41,76.87-170.15c2-32-46-70.12-5-97.06
				C1484.93,349.49,1562.27,321.01,1614.42,310.87z"/>
		</g>
		<g>
			<path class="st0" d="M1230.01,274.18c0.22-12.33,16.93-15.93,22.22-4.79c26.9,56.55,50.95,104.17,71.1,121.9c25,22,58-2,66,33
				s17,163-46,188s-24-32-22-37c15-35,47-96,7-115s-78-18-91-83C1230.55,343.39,1229.48,304.06,1230.01,274.18z"/>
		</g>
	</g>
</g>
<g id="Black">
	<g>
		<g>
			<circle cx="-801.67" cy="313.29" r="52"/>
		</g>
		<g>
			<path d="M-679.93,524.92v-83.11h60.43v21.37H-655v10.8h30.99v19H-655v10.57h35.5v21.37H-679.93z"/>
			<path d="M-582.58,503.55h37.28v21.37h-62.21v-83.11h24.93V503.55z"/>
			<path d="M-543.76,524.92l32.18-83.11h22.08l33.01,83.11h-26.48l-5.34-13.89h-24.7l-4.99,13.89H-543.76z M-509.09,491.56h16.62
				l-7.96-23.39L-509.09,491.56z"/>
			<path d="M-411.5,524.09l-14.13-37.04l-3.09,37.87h-24.81l7.6-83.11h23.75l18.88,47.25l18.88-47.25h23.75l7.6,83.11h-24.81
				l-3.09-37.87l-14.13,37.04H-411.5z"/>
		</g>
		<g>
			<path d="M-732.81,662.22c0-23.15,16.86-42.86,44.88-42.86s44.88,19.71,44.88,42.86s-16.86,42.86-44.88,42.86
				S-732.81,685.38-732.81,662.22z M-667.99,662.22c0-11.64-7.24-21.49-19.95-21.49s-19.95,9.85-19.95,21.49s7.24,21.49,19.95,21.49
				S-667.99,673.86-667.99,662.22z"/>
			<path d="M-607.8,664.12v39.66h-24.93v-83.11h19.47l27.66,38.94v-38.94h24.93v83.11h-19.35L-607.8,664.12z"/>
			<path d="M-488.36,645.84c-5.11-4.27-10.8-5.11-15.79-5.11c-12.94,0-21.37,9.5-21.37,21.49s8.43,21.49,21.37,21.49
				c2.61,0,7.12-0.36,9.97-1.31v-9.14h-17.21v-17.93h40.96v36.33c-8.9,7.84-19.95,13.42-33.72,13.42c-28.02,0-46.3-19.71-46.3-42.86
				s18.28-42.86,46.3-42.86c12.58,0,21.49,3.92,29.68,10.33L-488.36,645.84z"/>
			<path d="M-459.16,703.78v-83.11h60.43v21.37h-35.5v10.8h30.99v19h-30.99v10.57h35.5v21.37H-459.16z"/>
			<path d="M-361.92,675.76v28.02h-24.93v-83.11h40.37c19.35,0,29.68,13.06,29.68,28.97c0,12.23-6.29,21.13-17.22,24.58
				c1.07,7.84,4.87,11.52,9.74,11.52c2.85,0,5.94-0.83,9.02-2.85l7.6,15.79c-6.05,4.16-13.3,6.41-21.73,6.41
				c-21.61,0-25.65-20.78-26.6-29.33H-361.92z M-361.92,658.54h12.82c4.27,0,7.36-4.04,7.36-8.07c0-4.39-3.09-8.43-7.36-8.43h-12.82
				V658.54z"/>
			<path d="M-301.62,703.78v-83.11h60.43v21.37h-35.5v10.8h30.99v19h-30.99v10.57h35.5v21.37H-301.62z"/>
			<path d="M-204.26,664.12v39.66h-24.93v-83.11h19.47l27.66,38.94v-38.94h24.93v83.11h-19.35L-204.26,664.12z"/>
		</g>
		<g>
			<path d="M-477.79,760.22c0.7,3.21,2.76,4.92,6.22,4.92c2.41,0,4.11-0.8,4.11-2.51c0-0.85-0.45-1.96-2.96-2.76l-3.96-1.5
				c-1.71-0.55-10.23-2.81-10.33-10.28c0-6.77,5.72-11.13,13.39-11.13c6.62,0,10.83,3.26,12.84,9.13l-8.43,2.41
				c-0.7-1.96-1.71-3.51-4.21-3.51c-1.71,0-3.31,0.7-3.31,2.21c0,1,0.7,1.91,2.86,2.66l3.91,1.35c7.82,2.71,10.28,6.12,10.43,11.08
				c0,7.47-6.72,10.88-14.34,10.88c-8.12,0-13.64-3.91-14.7-10.98L-477.79,760.22z"/>
			<path d="M-448.31,735.39c3.91,0,5.77,2.01,5.77,4.61c0,2.61-2.06,4.61-5.77,4.61c-3.71,0-5.77-2.01-5.77-4.61
				C-454.07,737.4-452.22,735.39-448.31,735.39z M-443.14,746.23h-10.33v26.38h10.33V746.23z"/>
			<path d="M-421.73,758.16c0-2.06-0.45-4.46-3.11-4.46s-3.06,2.41-3.06,4.46v14.44h-10.33v-26.38h10.33v3.26
				c1.45-2.36,3.76-3.81,7.32-3.81c8.18,0,9.18,7.17,9.18,11.49v15.45h-10.33V758.16z"/>
			<path d="M-395,773.16c-4.71,0-10.03-1.96-10.03-9.68v-9.78h-3.61v-7.47h4.71l1.2-6.47h7.77v6.47h6.27v7.47h-6.27v9.88
				c0,1.15,0.55,1.61,1.25,1.61c1.05,0,1.4-1.05,1.4-2.01c0-1.15-0.25-2.16-0.45-2.41h6.57c0.55,0.85,0.85,2.06,0.9,3.16
				C-385.26,771.3-390.48,773.16-395,773.16z"/>
			<path d="M-382.41,752.9h18.96v8.93h-18.96V752.9z"/>
			<path d="M-362.2,772.61l13.59-35.11h9.33l13.94,35.11h-11.18l-2.26-5.87h-10.43l-2.11,5.87H-362.2z M-347.55,758.51h7.02
				l-3.36-9.88L-347.55,758.51z"/>
			<path d="M-292.88,757.86c0-2.06-0.4-4.11-2.41-4.11c-2.01,0-2.46,2.06-2.46,4.11v14.75h-10.33v-14.75c0-2.06-0.4-4.11-2.41-4.11
				c-2.01,0-2.46,2.06-2.46,4.11v14.75h-10.33v-26.38h10.33v3.31c0.9-2.36,3.26-3.86,6.07-3.86c3.41,0,5.62,1.61,6.97,3.76
				c2.76-3.36,5.27-3.76,8.08-3.76c7.32,0,9.28,7.22,9.28,11.54v15.4h-10.33V757.86z"/>
			<path d="M-259.38,769.35c-1.4,2.36-4.11,3.81-7.52,3.81c-7.02,0-12.39-5.77-12.39-13.74c0-7.97,5.37-13.74,12.39-13.74
				c3.41,0,6.12,1.45,7.52,3.86v-3.31h10.33v26.38h-10.33V769.35z M-264.1,765.29c3.01,0,4.87-2.56,4.87-5.87
				c0-3.31-1.86-5.87-4.87-5.87c-3.01,0-4.87,2.56-4.87,5.87C-268.96,762.73-267.11,765.29-264.1,765.29z"/>
			<path d="M-227.64,758.16c0-2.06-0.45-4.46-3.11-4.46s-3.06,2.41-3.06,4.46v14.44h-10.33v-26.38h10.33v3.26
				c1.45-2.36,3.76-3.81,7.32-3.81c8.18,0,9.18,7.17,9.18,11.49v15.45h-10.33V758.16z"/>
			<path d="M-194.09,769.35c-1.4,2.36-4.11,3.81-7.52,3.81c-7.02,0-12.39-5.77-12.39-13.74c0-7.97,5.37-13.74,12.39-13.74
				c3.41,0,6.12,1.45,7.52,3.86v-13.19h10.33v36.26h-10.33V769.35z M-198.8,765.29c3.01,0,4.87-2.56,4.87-5.87
				c0-3.31-1.86-5.87-4.87-5.87c-3.01,0-4.87,2.56-4.87,5.87C-203.67,762.73-201.81,765.29-198.8,765.29z"/>
			<path d="M-173.02,762.98c0.5,2.46,2.21,3.21,4.31,3.21c1.5,0,2.46-0.45,2.46-1.3c0-0.5-0.2-0.85-1.76-1.4l-3.01-1.1
				c-1.46-0.55-8.23-2.26-8.23-8.03c0-5.27,4.66-8.68,10.73-8.68c4.71,0,8.43,1.81,10.43,6.72l-7.47,2.11
				c-0.7-1.6-1.86-2.11-3.06-2.11c-1.1,0-1.66,0.6-1.66,1.25s0.55,0.95,1.76,1.35l2.91,1.2c5.72,2.01,8.28,4.82,8.38,8.43
				c0,5.92-5.37,8.53-11.49,8.53c-6.57,0-10.93-2.71-11.84-8.48L-173.02,762.98z"/>
		</g>
		<g>
			<path d="M-708.65,562.1c4.32-4.76,11.98,0.18,9.44,6.08c-50.33,117.15-135.24,259.35-206.47,250.1
				c-29.88-4.67-37.09-28.52-11.05-166.81c1.39-7.39,11.81-7.85,13.82-0.6c8.17,29.3,21.56,69.49,34.22,72.41
				C-846.16,728.48-759.94,618.62-708.65,562.1z"/>
		</g>
		<g>
			<path d="M-585.58,310.87c4.91-0.96,7.24,5.83,2.79,8.12c-45.15,23.21-109.75,58.76-124.88,82.29c-9,16,17,53,17,79
				c0,24.3-33.19,73.05-125.68,163.4c-2.88,2.81-7.38-0.87-5.19-4.25c34.97-53.78,73.38-107.41,76.87-170.15c2-32-46-70.12-5-97.06
				C-715.07,349.49-637.73,321.01-585.58,310.87z"/>
		</g>
		<g>
			<path d="M-969.99,274.18c0.22-12.33,16.93-15.93,22.22-4.79c26.9,56.55,50.95,104.17,71.1,121.9c25,22,58-2,66,33s17,163-46,188
				s-24-32-22-37c15-35,47-96,7-115s-78-18-91-83C-969.45,343.39-970.52,304.06-969.99,274.18z"/>
		</g>
	</g>
</g>
<g id="Green">
	<g>
		<g>
			<circle class="st1" cx="298.33" cy="313.29" r="52"/>
		</g>
		<g>
			<path class="st2" d="M420.07,524.92v-83.11h60.43v21.37H445v10.8h30.99v19H445v10.57h35.5v21.37H420.07z"/>
			<path class="st2" d="M517.42,503.55h37.28v21.37h-62.21v-83.11h24.93V503.55z"/>
			<path class="st2" d="M556.24,524.92l32.18-83.11h22.08l33.01,83.11h-26.48l-5.34-13.89h-24.7l-4.99,13.89H556.24z M590.91,491.56
				h16.62l-7.96-23.39L590.91,491.56z"/>
			<path class="st2" d="M688.5,524.09l-14.13-37.04l-3.09,37.87h-24.81l7.6-83.11h23.75l18.88,47.25l18.88-47.25h23.75l7.6,83.11
				H722.1l-3.09-37.87l-14.13,37.04H688.5z"/>
		</g>
		<g>
			<path class="st2" d="M367.19,662.22c0-23.15,16.86-42.86,44.88-42.86c28.02,0,44.88,19.71,44.88,42.86s-16.86,42.86-44.88,42.86
				C384.05,705.09,367.19,685.38,367.19,662.22z M432.01,662.22c0-11.64-7.24-21.49-19.95-21.49s-19.95,9.85-19.95,21.49
				s7.24,21.49,19.95,21.49S432.01,673.86,432.01,662.22z"/>
			<path class="st2" d="M492.2,664.12v39.66h-24.93v-83.11h19.47l27.66,38.94v-38.94h24.93v83.11h-19.35L492.2,664.12z"/>
			<path class="st2" d="M611.64,645.84c-5.11-4.27-10.8-5.11-15.79-5.11c-12.94,0-21.37,9.5-21.37,21.49s8.43,21.49,21.37,21.49
				c2.61,0,7.12-0.36,9.97-1.31v-9.14h-17.21v-17.93h40.96v36.33c-8.9,7.84-19.95,13.42-33.72,13.42c-28.02,0-46.3-19.71-46.3-42.86
				s18.28-42.86,46.3-42.86c12.58,0,21.49,3.92,29.68,10.33L611.64,645.84z"/>
			<path class="st2" d="M640.84,703.78v-83.11h60.43v21.37h-35.5v10.8h30.99v19h-30.99v10.57h35.5v21.37H640.84z"/>
			<path class="st2" d="M738.08,675.76v28.02h-24.93v-83.11h40.37c19.35,0,29.68,13.06,29.68,28.97c0,12.23-6.29,21.13-17.22,24.58
				c1.07,7.84,4.87,11.52,9.74,11.52c2.85,0,5.94-0.83,9.02-2.85l7.6,15.79c-6.05,4.16-13.3,6.41-21.73,6.41
				c-21.61,0-25.65-20.78-26.6-29.33H738.08z M738.08,658.54h12.82c4.27,0,7.36-4.04,7.36-8.07c0-4.39-3.09-8.43-7.36-8.43h-12.82
				V658.54z"/>
			<path class="st2" d="M798.38,703.78v-83.11h60.43v21.37h-35.5v10.8h30.99v19h-30.99v10.57h35.5v21.37H798.38z"/>
			<path class="st2" d="M895.74,664.12v39.66H870.8v-83.11h19.47l27.66,38.94v-38.94h24.93v83.11h-19.35L895.74,664.12z"/>
		</g>
		<g>
			<path class="st2" d="M622.2,760.22c0.7,3.21,2.76,4.92,6.22,4.92c2.41,0,4.11-0.8,4.11-2.51c0-0.85-0.45-1.96-2.96-2.76
				l-3.96-1.5c-1.71-0.55-10.23-2.81-10.33-10.28c0-6.77,5.72-11.13,13.39-11.13c6.62,0,10.83,3.26,12.84,9.13l-8.43,2.41
				c-0.7-1.96-1.71-3.51-4.21-3.51c-1.71,0-3.31,0.7-3.31,2.21c0,1,0.7,1.91,2.86,2.66l3.91,1.35c7.82,2.71,10.28,6.12,10.43,11.08
				c0,7.47-6.72,10.88-14.34,10.88c-8.12,0-13.64-3.91-14.7-10.98L622.2,760.22z"/>
			<path class="st2" d="M651.69,735.39c3.91,0,5.77,2.01,5.77,4.61c0,2.61-2.06,4.61-5.77,4.61c-3.71,0-5.77-2.01-5.77-4.61
				C645.92,737.4,647.78,735.39,651.69,735.39z M656.86,746.23h-10.33v26.38h10.33V746.23z"/>
			<path class="st2" d="M678.27,758.16c0-2.06-0.45-4.46-3.11-4.46s-3.06,2.41-3.06,4.46v14.44h-10.33v-26.38h10.33v3.26
				c1.45-2.36,3.76-3.81,7.32-3.81c8.18,0,9.18,7.17,9.18,11.49v15.45h-10.33V758.16z"/>
			<path class="st2" d="M705,773.16c-4.71,0-10.03-1.96-10.03-9.68v-9.78h-3.61v-7.47h4.71l1.2-6.47h7.77v6.47h6.27v7.47h-6.27v9.88
				c0,1.15,0.55,1.61,1.25,1.61c1.05,0,1.4-1.05,1.4-2.01c0-1.15-0.25-2.16-0.45-2.41h6.57c0.55,0.85,0.85,2.06,0.9,3.16
				C714.73,771.3,709.52,773.16,705,773.16z"/>
			<path class="st2" d="M717.59,752.9h18.96v8.93h-18.96V752.9z"/>
			<path class="st2" d="M737.8,772.61l13.59-35.11h9.33l13.94,35.11h-11.18l-2.26-5.87h-10.43l-2.11,5.87H737.8z M752.45,758.51
				h7.02l-3.36-9.88L752.45,758.51z"/>
			<path class="st2" d="M807.11,757.86c0-2.06-0.4-4.11-2.41-4.11c-2.01,0-2.46,2.06-2.46,4.11v14.75h-10.33v-14.75
				c0-2.06-0.4-4.11-2.41-4.11c-2.01,0-2.46,2.06-2.46,4.11v14.75h-10.33v-26.38h10.33v3.31c0.9-2.36,3.26-3.86,6.07-3.86
				c3.41,0,5.62,1.61,6.97,3.76c2.76-3.36,5.27-3.76,8.08-3.76c7.32,0,9.28,7.22,9.28,11.54v15.4h-10.33V757.86z"/>
			<path class="st2" d="M840.62,769.35c-1.4,2.36-4.11,3.81-7.52,3.81c-7.02,0-12.39-5.77-12.39-13.74
				c0-7.97,5.37-13.74,12.39-13.74c3.41,0,6.12,1.45,7.52,3.86v-3.31h10.33v26.38h-10.33V769.35z M835.9,765.29
				c3.01,0,4.87-2.56,4.87-5.87c0-3.31-1.86-5.87-4.87-5.87c-3.01,0-4.87,2.56-4.87,5.87C831.04,762.73,832.89,765.29,835.9,765.29z
				"/>
			<path class="st2" d="M872.36,758.16c0-2.06-0.45-4.46-3.11-4.46s-3.06,2.41-3.06,4.46v14.44h-10.33v-26.38h10.33v3.26
				c1.45-2.36,3.76-3.81,7.32-3.81c8.18,0,9.18,7.17,9.18,11.49v15.45h-10.33V758.16z"/>
			<path class="st2" d="M905.91,769.35c-1.4,2.36-4.11,3.81-7.52,3.81c-7.02,0-12.39-5.77-12.39-13.74
				c0-7.97,5.37-13.74,12.39-13.74c3.41,0,6.12,1.45,7.52,3.86v-13.19h10.33v36.26h-10.33V769.35z M901.2,765.29
				c3.01,0,4.87-2.56,4.87-5.87c0-3.31-1.86-5.87-4.87-5.87c-3.01,0-4.87,2.56-4.87,5.87C896.33,762.73,898.19,765.29,901.2,765.29z
				"/>
			<path class="st2" d="M926.98,762.98c0.5,2.46,2.21,3.21,4.31,3.21c1.5,0,2.46-0.45,2.46-1.3c0-0.5-0.2-0.85-1.76-1.4l-3.01-1.1
				c-1.46-0.55-8.23-2.26-8.23-8.03c0-5.27,4.66-8.68,10.73-8.68c4.71,0,8.43,1.81,10.43,6.72l-7.47,2.11
				c-0.7-1.6-1.86-2.11-3.06-2.11c-1.1,0-1.66,0.6-1.66,1.25s0.55,0.95,1.76,1.35l2.91,1.2c5.72,2.01,8.28,4.82,8.38,8.43
				c0,5.92-5.37,8.53-11.49,8.53c-6.57,0-10.93-2.71-11.84-8.48L926.98,762.98z"/>
		</g>
		<g>
			<path class="st2" d="M391.35,562.1c4.32-4.76,11.98,0.18,9.44,6.08c-50.33,117.15-135.24,259.35-206.47,250.1
				c-29.88-4.67-37.09-28.52-11.05-166.81c1.39-7.39,11.81-7.85,13.82-0.6c8.17,29.3,21.56,69.49,34.22,72.41
				C253.84,728.48,340.06,618.62,391.35,562.1z"/>
		</g>
		<g>
			<path class="st2" d="M514.42,310.87c4.91-0.96,7.24,5.83,2.79,8.12c-45.15,23.21-109.75,58.76-124.88,82.29c-9,16,17,53,17,79
				c0,24.3-33.19,73.05-125.68,163.4c-2.88,2.81-7.38-0.87-5.19-4.25c34.97-53.78,73.38-107.41,76.87-170.15c2-32-46-70.12-5-97.06
				C384.93,349.49,462.27,321.01,514.42,310.87z"/>
		</g>
		<g>
			<path class="st1" d="M130.01,274.18c0.22-12.33,16.93-15.93,22.22-4.79c26.9,56.55,50.95,104.17,71.1,121.9c25,22,58-2,66,33
				s17,163-46,188s-24-32-22-37c15-35,47-96,7-115s-78-18-91-83C130.55,343.39,129.48,304.06,130.01,274.18z"/>
		</g>
	</g>
</g>
</svg>